<?xml version="1.0" encoding="UTF-8"?>
<svg version="1.1" viewBox="0 0 2048 1927" width="1280" height="1280" xmlns="http://www.w3.org/2000/svg">
<path transform="translate(679)" d="m0 0h141l7 6 28 14 19 10 24 12 23 11 36 17 62 31 7 2 38-20 54-27 23-11 41-20 33-17 8-4 3-4h142l7 12 28 56 10 19 16 32 10 19 15 29 13 25 10 19 17 33 11 21 5 3 40 9 285 56 13 3 2 2-1 14-7 60-6 43-13 107-10 77-6 47-1 12 4 8 9 10 7 8 11 11 7 8 12 13 10 11 7 8 11 12 9 10 7 8 13 14 7 8 9 10 13 14 7 8 13 14 7 8 11 12 9 10 7 8 11 12 7 8 22 24 7 8 5 4v3l-8 7-18 18-7 8-12 14-12 13-7 8-9 10-7 8-11 12-13 14-7 8-16 17-11 12-9 10-9 11-15 16-9 10-14 15-9 10-7 8-10 10-7 8-13 13-3 5 2 9 2 17 6 53 14 112 11 86 6 43 5 37-1 4-7 3-22 5-313 62h-3l-3 10-18 35-21 42-12 22-14 27-10 19-17 33-36 72-1 1h-164l-8-7-23-12-19-10-32-16-23-11-39-19-19-9-19-10-9 1-40 20-52 25-52 26-19 10-13 7-7 5h-162l-5-12-32-64-10-19-19-37-10-19-18-34-17-33-17-35-5-8-2-1-27-4-200-40-84-16-27-6-4-3 1-11 4-31 7-50 5-44 6-45 9-70 8-64 4-34 2-7v-6l-12-13-22-24-12-13-7-8-16-17-18-20-9-11-7-7-7-8-14-15-9-10-13-14-7-8-12-13-7-8-12-14-12-13-7-8-11-12-24-26-4-4 1-3 8-7 8-8 7-8 9-10 9-11 12-13 18-20 9-9 7-8 12-13 7-8 9-10 7-8 12-13 7-8 9-10 12-14 10-10 7-8 7-7 1-2h2l2-4 11-12 7-8 9-10 7-7 7-8 7-9 1-9-1-3-4-40-7-51-5-42-6-45-9-70-9-73-3-24v-7l6-3 29-6 109-21 90-18 87-17 20-5 4-2 12-23 16-32 10-19 16-31 10-19 14-27 18-36 10-19 11-22 10-19zm681 568-7 6-4 5-7 6v2l-4 2-12 13-89 89-3 2v2h-2l-5 6-5 5-8 7-7 8-19 19-8 7-1 3-4 2-7 8-4 3v2l-4 2-31 31v2l-4 2-6 6v2l-4 2-6 6v2l-4 2-36 36v2l-4 2-4 4v2l-4 2-190 190-8 7-7 8-3 4v2l-8-8h-2l-2-4-55-55-8-7-77-77-9-11-4-2-136 136-10 7 2 4 286 286 8 7 7 7h2l2 4 5-1 8-9 8-7 53-53 8-7 7-8 176-176 7-6 7-8 71-71 5-4 5-5 8-9 7-6 6-7 69-69 5-4 4-5 7-6 5-5 15-16 54-54 8-7 35-35 9-10 17-17 2-1v-2l3-1 5-6 7-6 26-26 8-7-1-4-7-8-110-110-8-7-14-15z" fill="#4585F8"/>
<path transform="translate(1347,560)" d="m0 0 13 2 4 2v3l4 2 4 3v2l5 2 3 3v2h2l7 8 5 5v3h2l4 6-4-1-9-9-8-7-14-15-5-2-6 5-5 6-6 5-5 5-11 12-93 93h-2l-2 4-5 4-7 8-4 2-2 4-24 24-8 7-7 8-8 7-40 40-6 7-8 7-46 46-4 5-8 7-186 186-7 6-7 8-4 6-3-1-5-6-59-59-8-7-78-78-4-7-1-6 4-1 11 9 22 22v2l3 1 5 6 2 1v2h2l7 8 13 13v2l4 2 5 5 1 3h2v2l4 2 5 5 8 6v2l4 2 14 13 15 9 1-4 3 2 5 1 1-4 6-1 10-4 6-4 8-1 4-2 2-5 5-8 6-8 13-13 6-3 9-12 7-6 5-6 2-1 3-5 6-7 7-6 7-8 3-1 1-3 7-5 5-3 6-5 5-4h2l2-4 7-6 3-4h2l2-4 10-9 12-12 7-8 9-10 7-9h2l2-4 8-8 8-7 13-11 17-17 3-4h2v-2l16-14 11-14 10-10 16-12 10-12 4-4h2v-2l8-7 10-10 11-9 10-9 18-18 7-8 7-7 11-9 6-5 5-6 5-4 5-5 11-9 8-8 10-7 3-3h2l2-4 5-2 10-8 10-9 11-6 6-4z" fill="#3975EC"/>
<path transform="translate(1809,1336)" d="m0 0h6l3 2 11 88 11 86 6 43 5 37-1 4-7 3-22 5-313 62h-3l-3 10-18 35-21 42-12 22-14 27-4 3-8 16-7 11-1 2h-2l-1 5h-2v4h-3l-5 15-1 6h-2l-1 6-7 13-5 7-2 4-5-1-2 5-5 2-3-1 1-8-3 2 1-8 4-11 10-17 6-10h2l2-6 4-8 7-18h-2l2-5 7-16v-2l-1-2 7-21 9-17 6-11 6-10 6-11 6-10 4-10 6-8 7-11 8-10 6-7 9-7 9-5 10-2 22-7 16-4 14-1 9-3 8-1 10-1 2-1h7l4 1 1-2 3 1v-2h3l4-1 7-1v-1l13-2 15-4 42-10 42-8 16-5 39-7 18-6 1-2 14-4 2-3h-5l5-5 3-6h3l1-5v-21l-1-26-4-20-1-23-2-21-2-3-2-13-1-16-3-16-1-7-1-28-2-6-2-7 1-10z" fill="#3975EC"/>
<path transform="translate(1988,906)" d="m0 0 4 1 8 8 9 11 7 7 7 8 13 14 7 8 5 4v3l-8 7-18 18-7 8-12 14-12 13-7 8-9 10-7 8-11 12-13 14-7 8-16 17-11 12-9 10-9 11-15 16-9 10-14 15-9 10-7 8-10 10-7 8-4 4-5 3-5-1v-10l-3 1-1-10 5-13 6-10 8-9 5-9 5-6-1-5 6-5 4-5 5-6 5-2 2-4 3-1v-3l7-6 1-2h2l2-4 9-11 5-5 11-12 7-8 3-6 3-1 1-2h2l2-5 8-9 8-7 4-4h2l2-4 4-3v2l5-2 2-5 7-10 9-7 4-4h2l1-2 1 3 7-8 7-6 7-9v-4l6-9 4-11 3-4 1-11-1-4-4-6-1-7-6-12-5-6-2-8z" fill="#3975EC"/>
<path transform="translate(213,1478)" d="m0 0h3l2 12-1 13-2 25-2 18v26l1 9 6 6 7 2v-2l11 1 9 2 5 1 1 2 16 5 15 3 30 4 8 2 13 2 17 3 22 3 34 9 21 3 13 3 10 2 2-1 18 5 5 1 14 4 7 3 18 4 5 3 4 1v3h2l1 7-21-4-7-2-5-2-7-1h-16l-111-22-50-10-84-16-27-6-4-3 1-11 4-31 7-50 2-19z" fill="#3975EC"/>
<path transform="translate(1830,333)" d="m0 0 10 1 9 3 1 1-1 14-7 60-6 43-13 107-10 77-4 33-2 5h-2l-6-8-1-8h-2l-2-6-1-15 2-20 3-13 4-16 1-16 2-19 1-4 2-5 3-5-1-3 2-7 1-13 1-9 2-17 2-5v-5h2l-1-7 1-4 4-24 2-15 1-17 1-5 1-11 2-11 1-12v-16l-1-8v-12l-2-4z" fill="#3A76EC"/>
<path transform="translate(661,922)" d="m0 0 11 1 3 2-3 5-124 124-5 1-6-10v-12l7-12 5-6 9-11 8-8 8-7 7-11 8-6 7-8h2l2-4 11-11h2l2-4 6-4 10-8 7-4 9-3 8-3z" fill="#3975EC"/>
<path transform="translate(920,1856)" d="m0 0h14v2l3 1-2 3 2 2-9 9-6 4-5 2v2h-3v2l-17 9-3 3-20 10-19 10-13 7-7 5h-17v-4h2l2-5 2-2 3-7 7-6h2l2-4 15-10 12-7 10-5h2l1-3 6-2 5-4 7-1 1-3 5-2 8-2z" fill="#3975EC"/>
<path transform="translate(1565,281)" d="m0 0 10 1 92 18 90 18 48 9 6 4-5 5h-9l-9-3-20-3-21-3-5-2-20-4-26-6-24-6-21-2-5-1v-2h-7l-16-3-15-4-9-1-6-2-17-4-11-2-4-3v-2z" fill="#3B77ED"/>
<path transform="translate(522,272)" d="m0 0h5l-4 4-7 5-15 3-13 2-30 9-14 1-3 1-13 1-8 3-9 2-10 2-17 2-13 2-6 2-8 3-16 2-15-1-6 1h-6v-2l12-3 100-20 92-18z" fill="#3A76ED"/>
<path transform="translate(37,931)" d="m0 0 2 1-6 15-2 10-2 13v9l3 9 1 8h2v2l3 1 1 3-3 1-4-3v-2l-6-2-9-10-14-15-3-3 1-3 8-7 8-8 7-8 11-10z" fill="#3975EC"/>
<path transform="translate(207,334)" d="m0 0h6l2 5-1 7-5 25-1 13 1 21v11l5 15 1 12-2 3-3-1-2-12-11-88v-7l6-3z" fill="#3A76EC"/>
<path transform="translate(1129,1875)" d="m0 0 9 1 14 6 22 12 10 6 6 5v3l2 1h-2v2l-4 1-33-17-12-6-3-3-6-4-3-5z" fill="#3975EC"/>
<path transform="translate(1427,629)" d="m0 0 7 4 3 3v2l5 2 6 5 13 13 3 1 7 8 3 2v2h3v3h2l9 11 6 10-2 3-66-66z" fill="#3A77ED"/>
<path transform="translate(824,6)" d="m0 0 5 1 26 13 19 10 26 13 1 3-9-2-20-8-8-4-9-3-11-5v-2l-10-3-6-3-4-3z" fill="#3A76ED"/>
<path transform="translate(1831,733)" d="m0 0 4 2 10 9 11 12 10 11 7 8 4 6-5 1-7-4-15-15v-2l-3-1v-2l-4-2-1-3-3-1-4-6-3-5-3-1-1-5z" fill="#3A76EC"/>
<path transform="translate(1442,156)" d="m0 0 5 1 8 15 4 4 11 21 1 7-4 2-7-9-6-9-4-9-3-8-3-5h-1l-2-8z" fill="#3A76EC"/>
<path transform="translate(1934,846)" d="m0 0 5 2 12 13 11 12-1 5-4-1v-2h-3l-8-8-2-5h-2l-6-8-2-1v-3h-2z" fill="#3A76ED"/>
<path transform="translate(1434,1803)" d="m0 0 1 2-12 24-10 19-11 22h-2l1-6h2v-6l3-9 3-6 2-2 1-2h2l1-5h2l2-6 7-10 7-14z" fill="#4887F9"/>
<path transform="translate(1802,1265)" d="m0 0 4 2 3 3v10l-1 10-1 5-4-1-3-9v-12z" fill="#3975EC"/>
<path transform="translate(1818,1354)" d="m0 0h2l7 55v6l-2-1-3-16-4-24-1-9z" fill="#4B89F9"/>
<path transform="translate(1352,1919)" d="m0 0 2 3 6-3 4 1 1 2 5 2 2 3h-32l2-1v-2z" fill="#3975EC"/>
<path transform="translate(1364,10)" d="m0 0 9 2 4 10-2 7-3 1v-4l-5-5-3-7z" fill="#3975EC"/>
<path transform="translate(305,315)" d="m0 0h7v2l-10 4-13 3-10-1-2-2 12-3z" fill="#3B78ED"/>
<path transform="translate(208,416)" d="m0 0 2 4 4 10 1 13-2 3-3-1-2-12-1-16z" fill="#3B77ED"/>
<path transform="translate(1285,931)" d="m0 0 4 2v2h-2l-1 5-2 3h-2l-1 3-2 1h-6l2-4 7-7z" fill="#3975EC"/>
<path transform="translate(488,1652)" d="m0 0 7 1 7 3 9 2v3l-34-7v-1z" fill="#4987F9"/>
<path transform="translate(1479,1717)" d="m0 0 1 3-15 29-6 11-1-3 9-17 4-9 1-4h2l2-5z" fill="#4987F9"/>
<path transform="translate(1401,1830)" d="m0 0 2 1-1 5-3 8-4 11-3 1 2-9 5-13z" fill="#4585F9"/>
<path transform="translate(1115,1103)" d="m0 0 1 3-3 5-4 5-8 2 6-7z" fill="#3975EC"/>
<path transform="translate(624,1156)" d="m0 0 4 1 4 3v2l3 1v3l-5-1-6-7z" fill="#3975EC"/>
<path transform="translate(1479,1717)" d="m0 0 1 3-8 15h-2l2-8h2l2-5z" fill="#5891F9"/>
<path transform="translate(559,1087)" d="m0 0 4 1 5 6-3 2-5-5z" fill="#3975EC"/>
<path transform="translate(995,90)" d="m0 0 6 2 2 5-2 1v-2l-5-1v-2h-2z" fill="#3A76ED"/>
<path transform="translate(986,1232)" d="m0 0 4 2-1 3-4 1-2-1 2-4z" fill="#3975EC"/>
</svg>
