<?xml version="1.0" encoding="UTF-8"?>
<svg version="1.1" viewBox="0 0 2048 1677" width="1280" height="1280" xmlns="http://www.w3.org/2000/svg">
<path transform="translate(1076,116)" d="m0 0h18l11 4 10 6 17 16 590 590 11 14 9 14 6 15 3 14 1 14-2 15-5 16-5 10-11 17-11 12-13 9-11 5-19 5-16 2h-65v404l-1 36-2 9-6 10-9 10-5 4-9 4-10 2-17 1h-378l-2-2-1-15v-276l1-36h-165l1 3v322l-3 3-295 1h-58l-23-1-9-3-6-4-11-11-7-11-3-9-1-12-1-29v-400l-41 1h-23l-18-2-18-6-15-8-9-7-9-8-10-13-7-14-6-18-1-4v-24l3-15 7-16 7-13 10-13 563-563 10-11 6-5 4-5 8-7 7-7 10-8 13-8z" fill="#F74942"/>
</svg>
