<?xml version="1.0" encoding="UTF-8"?>
<svg version="1.1" viewBox="0 0 2048 1677" width="1280" height="1280" xmlns="http://www.w3.org/2000/svg">
<path transform="translate(884,231)" d="m0 0h17l21 5 31 11 30 11 25 9 57 21 92 33 154 56 49 18 53 19 91 33 44 16 41 15 21 9 12 7 10 9 7 7 7 14 2 6 1 10v732l-1 22-5 32-5 19-9 25-10 21-15 24-12 16-10 11-7 8-11 10-14 11-15 10-18 10-25 12-20 7-19 5-26 5-18 2h-22l-28-3-23-5-23-7-25-11-19-10-16-11-16-13-15-14-12-12-9-11-11-14-10-16-12-23-8-20-5-15-6-27-3-25v-27l2-19 5-26 5-20 6-16 8-16 12-23 13-18 14-18 9-10 7-7 10-8 19-14 15-10 12-7 20-9 20-7 18-5 24-4 12-1h43l27 4 24 6 20 7 21 11 11 6v-403l1-60-10-5-41-15-35-13-102-37-102-37-38-14-50-18-30-11-42-15-93-34-22-9-1 639-1 27-3 21-7 26-7 20-8 18-11 18-13 19-8 10-9 11h-2l-2 4-12 12-14 11-15 10-14 8-17 9-28 11-25 7-20 4-17 2h-39l-24-3-25-6-28-10-27-13-15-10-13-10-12-11-15-14-15-16-12-16-12-20-12-23-9-25-5-17-4-23-2-17v-34l5-33 6-23 9-24 14-28 8-13 12-17 11-13 21-21 8-7 18-13 18-11 15-8 20-8 23-7 30-6 18-2h25l31 4 22 5 20 6 17 7 23 11h2l-1-63v-410l1-40 3-14 6-11 10-13 13-10 16-8z" fill="#F44641"/>
</svg>
