<?xml version="1.0" encoding="UTF-8"?>
<svg version="1.1" viewBox="0 0 992 864" width="1280" height="1280" xmlns="http://www.w3.org/2000/svg">
<path transform="translate(274,124)" d="m0 0h165l20 1 9 4 6 4 7 8 4 10 1 9-2 11-4 8-8 9-8 4-7 2-16 1h-90l-85 1-12 6-7 8-5 12v434l3 10 9 10 10 5 10 2 182 1 10 3 10 7 7 11 3 11-1 11-4 10-9 10-9 5-10 2h-184l-20-3-15-5-15-8-13-10-11-11-10-14-8-17-5-18-1-7-1-48v-327l1-70 3-15 5-13 10-19 10-11 4-5 11-9 14-9 15-6 18-4z" fill="#F64745"/>
<path transform="translate(622,264)" d="m0 0 13 1 10 5 10 8 133 133 8 11 4 9 1 9-2 10-6 11-147 147-8 4-13 2-11-2-11-6-6-7-5-10-1-3v-14l4-11 8-10 76-76-270-1-11-4-10-9-6-10-2-6v-10l3-10 6-9 8-7 9-4 6-1h206l61-1-80-80-6-10-3-9v-10l4-11 6-8 8-7 7-3z" fill="#F54745"/>
<path transform="translate(446,688)" d="m0 0 10 2 6 1 4 3v2h6l5 2 4 6 2 1 3 11-1 11-2 5-4 5-4 3-9 3-4 1v2h-8l-2 1-7 1 3 2v2l2 1h-62l-3-2v-2l-13-1-2-2 1-2 7 1 3-2v-2l-2-2h5l-1-3 3-2 10-1 4-4h2l2-5 2-3 4-2h3v-2h2l2-6 5-2 1 1 3-3 12-3h2l-1-2-2 1 1-3 5-1-2-1v-2l4-3z" fill="#E62827"/>
<path transform="translate(244,212)" d="m0 0 1 2-3 8-1 432h-1l-1-35-2-1 2-6v-8h-2v-4l-2-1v-18l-1-9v-8l1-3h-2v-22-1-11l-1-21v-8l3-3-1 4h2l1 9v-26l-1-29-1-6 1-7-2-1 1-1v-9l-1-7 2-9h-2v-54l-1-7 2-6-1-5v-22l1-13-1-4v-12l1-4v-22l-1-16v-13l1-11v-4l2-5 5 1z" fill="#FE5D54"/>
<path transform="translate(687,444)" d="m0 0 11 1-2 2-8 3-4 2h-4l-2 6-5 3h-2v2l2 1 5 4 1-2 3 1v2l2 1v2l2 1-6 8-3 7h2v5l-4 2-1-3 1-2h-3v-2h-2l2-4 8-8v-3h-108l2-2 2-1-2-1 1-4 8-3h15l8-1h8l16-3 5-2 3-5h24l2-1h8l7-3 2-2z" fill="#E63D3E"/>
<path transform="translate(225,146)" d="m0 0 2 1-1 4-6-1v3l-1 3-5 1-2 4h-2v2l-4 1v3l-5 3-2 3-2 7-3 3h-2l-2 5-3 6-2 3 1 6h-2l-2 16-1 13-2 2v5l-5 4-2-3-1-3v-21l3-15 5-13 3-6 2 3-1 2 3-1 4-9 1-4 3-5 5-4 9-9 2-1v-2h2v-2l4-2h2z" fill="#FE5D54"/>
<path transform="translate(317,695)" d="m0 0 1 2 10-2h6l3 3h3v2l3 3-4 2 2 1 1 2 1 3h-3v2h-2v3h-3l-1 2-6-2 5 6-6 4-1 4h-4l-1 2-5 1-4-1h-3l2-7h2v-2h2l1-5 4-2v-2h3v-2h2l1-11-8 1-2 4h-2l-1 4-6-2-1-7-3-2 8-1v-2z" fill="#E63D3E"/>
<path transform="translate(195,210)" d="m0 0 6 2v5l2 1 2 7 6 1v6l-5-1-1 5-5 1-1 4-3 4 2 1v-2h2v5l-3 3v5l-4-1-1-7-4-8 3-9-1-4 4-2-2-6h2l-1-9z" fill="#FE5D54"/>
<path transform="translate(335,737)" d="m0 0h1v6l5 4 17 5v1h-60l-4-3 2-4h10v1h9l2-3-3-2 9-3 9 3 2-1z" fill="#E63D3E"/>
<path transform="translate(195,258)" d="m0 0 2 3 1 5 2 1-1 4 2 5h8l1 3-3 2h-3v-2l-10-1 3 11 3 1v2h2l1 3 6 2v5l-5 2-4-6-3-1v10l-2 4 4 3 1-3 2 1-2 5-5-2h-3l-1-3 1-7v-9l-3-1 2-1-2-4 3-4-1-3-2-1v-5l5-3v-7-3-4z" fill="#FE5D54"/>
<path transform="translate(412,404)" d="m0 0h125v1l-95 1-3 3-10 2-14 1v-4l-4 1-5 2v3l-9 2-8 1 5-6 12-6z" fill="#FE5D54"/>
<path transform="translate(274,124)" d="m0 0h64v1l-53 1-2-1-1 4-6 3-13 2-10 4v2h-3l-2-7-2-4 5-2 10-2z" fill="#FE5D54"/>
<path transform="translate(170,286)" d="m0 0h1l1 114 1 3-1 4-1 206h-1z" fill="#FF5E55"/>
<path transform="translate(207,179)" d="m0 0h3v5l-3 1-2 3v3l-3 4-1 6 4 2-2 1 5 3-2-6h-2v-2h2v-2l5 1v2h2v2l2 2-2 4-2 5 4 1-1 3-5-4-5-2-1 2-1-3-2-1 1-1-3-2v-2l-6-2 1-2 2-2v-9l4-2 2-5z" fill="#FE5D54"/>
<path transform="translate(414,467)" d="m0 0h6v2l-2 1-1 3h263v1h-271l2-6z" fill="#FF5E55"/>
<path transform="translate(392,419)" d="m0 0h3l-1 4h-2l2 3v3l-2 1-1 4 1 1v5l-3 1 2 6h-6l-4 1-1-3v-10l3-10 3-4h6z" fill="#FE5D54"/>
<path transform="translate(234,495)" d="m0 0 1 2-1 2h2l1 20-1 5 1 26v35l1 5v3l-1 7-2-1v-18l-1-9v-8l1-3h-2v-22-1-11l-1-21v-8z" fill="#FF5E55"/>
<path transform="translate(323,143)" d="m0 0h13l7 1 2 3-1 8-7 3-3-2v-2l-9-3-7-1h-4l1-5 6 1h4l-2-1z" fill="#FE5C53"/>
<path transform="translate(655,542)" d="m0 0h3l-1 3h-2v2h-2v2l-6 1v7l-6 3-2 3v4l-3 3-6 1-1-3h6v-4h-3l-1-4 2-1 2 1 2-5-3-3v-2l11-2 3-4z" fill="#E63D3E"/>
<path transform="translate(741,372)" d="m0 0h3l2 9 10 7 2 1 1-5h2l-1 4v3l-3 2 6 8v2h-2l-5-7-1 4h-3l-6-6-1-4 3-2-4-2-3-3-3-6 1-2 1 1z" fill="#E63D3E"/>
<path transform="translate(791,436)" d="m0 0h4l1 4-3 1v3h-2l-2 6-5 8-7 2v-3h-2l1-5h2v-2l2-1v-3h2v-2h2v-2h2l1-5z" fill="#E62827"/>
<path transform="translate(620,565)" d="m0 0h2v2h2l1 5-3 3h2l1-2 1 3-6 2 1 4-2 8-1 9-1 2-4-1-1-3-2-1v-5l4 1-1-3 1-1-2-2h2v-2l-3-1 2-4h4l2-4 1-5-1-4z" fill="#E63D3E"/>
<path transform="translate(386,448)" d="m0 0 4 1 4 6 2 8 5 2 7 4 1 4-7-1-9-6-8-9-3-7z" fill="#FF5E55"/>
<path transform="translate(248,152)" d="m0 0 5 3h2l1-3 5 1 2 3 5 1-1 2-4 1 2 1-2 3-5 1h-3l-3-1 1 4-5-1 2-1 1-5-1-3h-2v-3l-2-1h2z" fill="#FE5D54"/>
<path transform="translate(224,154)" d="m0 0h4l4 4v2l2 1 1 7-4-1-1-3-3-1-3 1-2 6-3-1-1-5h-2v-4l5-1 1-4z" fill="#FE5D54"/>
<path transform="translate(421,440)" d="m0 0 7 6 3 1v2h2v2h-6l1 6 1 2-5 4-4 2-4-2 2-1 2 1-2-5-1-2h3l1-2h3v-5l-2-3-3 1-2-6z" fill="#FF5E55"/>
<path transform="translate(746,371)" d="m0 0 4 2 10 10-2 6-5-2-8-6-1-8h2z" fill="#F64846"/>
<path transform="translate(177,555)" d="m0 0h1l1 14v6l-1 5-1 4h-2v6h2v2h-2l-1 2-1-6v-22l2-7z" fill="#FE5D54"/>
<path transform="translate(591,291)" d="m0 0 2 2 3 8 2 3 2 7 2 4-1 2h-2l-3-4-2 2-4-11v-10z" fill="#FB564F"/>
<path transform="translate(622,264)" d="m0 0 13 1 5 2 2 4 4 2v2l-5-1-6-2h-2v-2l-9-1 1-2-10-1v-1z" fill="#FE5B53"/>
<path transform="translate(451,448)" d="m0 0 2 1 1 5-1 2-5 1v2h-2l-2 6v1h-5l-5-3v-2h2v-2l7-2 6-4z" fill="#FE5D54"/>
<path transform="translate(204,316)" d="m0 0h2v5h2l1 5-2 4-6-2-3-2h-3l-2 4h-1l1-7h3 2l2-3h2 3z" fill="#FE5D54"/>
<path transform="translate(472,147)" d="m0 0 3 2 2 7v8l-4 4-1-2 2-5-4-2-1-6 2-5z" fill="#E63D3E"/>
<path transform="translate(404,190)" d="m0 0 7 1 4 3-35 1-6-1v-1l9-1 10-1h7z" fill="#E73E3F"/>
<path transform="translate(240,603)" d="m0 0h1v51h-1l-1-35-2-1 2-6v-8z" fill="#FF5E55"/>
<path transform="translate(172,250)" d="m0 0h2l2 10-1 16-2 2-1-11 1-6h-2z" fill="#FF5E55"/>
<path transform="translate(482,705)" d="m0 0 2 3 2 8-1 11-2 4v-3l-2-1 1-1v-3-4l1-7h-2l1-2-1-1z" fill="#F74A47"/>
<path transform="translate(243,162)" d="m0 0h2l1 6-2 5-5 1-3-3v-2l3-1z" fill="#FF5E55"/>
<path transform="translate(272,146)" d="m0 0h3v2l6 1v3h-3l-7 1-2 3-3-1 3-7z" fill="#FF5E55"/>
<path transform="translate(239,176)" d="m0 0 2 1v3l1 1 2 3-5 3-1-1-4 1-1-2h2l-1-4z" fill="#FE5C53"/>
<path transform="translate(248,152)" d="m0 0 11 6-1 3-5 1-3-2v-2h-2v-3l-2-1h2z" fill="#FB544E"/>
<path transform="translate(771,399)" d="m0 0 3 1 1 2 3 1-2 4-9-2-2-2v-3h5z" fill="#E63D3E"/>
<path transform="translate(591,291)" d="m0 0 2 2 3 8 2 3-1 2h-2v-3l-4 2-1-1v-10z" fill="#FF5E55"/>
<path transform="translate(237,512)" d="m0 0 2 2v7 3 9l-2 7h-1l-1-21z" fill="#F64745"/>
<path transform="translate(660,530)" d="m0 0h2l3 7-2 3h-2v2l-4-1 1-8z" fill="#E63D3E"/>
<path transform="translate(255,188)" d="m0 0h15v3h-2l-1 2-7-2h-6l-1-2z" fill="#FF5E55"/>
<path transform="translate(719,401)" d="m0 0h5l-2 1v5l-6 2-2-1 1-5z" fill="#E63D3E"/>
<path transform="translate(237,131)" d="m0 0 2 1-8 8-4-1-2-2z" fill="#FE5C54"/>
<path transform="translate(231,300)" d="m0 0 2 1-1 9-1-2h-2l-1 4-3-5v-3l5-2z" fill="#FE5D54"/>
<path transform="translate(190,704)" d="m0 0 5 3 1 7h-3l-5-7z" fill="#FB564F"/>
<path transform="translate(202,339)" d="m0 0 4 3v4h-2l1 3h-2l1 3h-3v-12z" fill="#FF5E55"/>
<path transform="translate(186,688)" d="m0 0 4 4 3 7-1 2-4 1-1-3 1-4z" fill="#FF5E55"/>
<path transform="translate(237,567)" d="m0 0 2 2v4 13l-3-1v-16z" fill="#F64745"/>
<path transform="translate(765,470)" d="m0 0 1 3-9 8-3-1 4-5z" fill="#E62827"/>
<path transform="translate(391,416)" d="m0 0h5l3 3h-7v2l-6 1 2-5z" fill="#F74B48"/>
<path transform="translate(397,457)" d="m0 0 7 3v6l-7-4z" fill="#FE5D54"/>
<path transform="translate(172,213)" d="m0 0 3 2-1 10-3 1v-10z" fill="#F74A47"/>
<path transform="translate(448,188)" d="m0 0h5l1 4-2 2h-7l2-4z" fill="#E63D3E"/>
<path transform="translate(766,412)" d="m0 0h4v2l2 1h-2l-1 6-3-1-1-3z" fill="#E63D3E"/>
<path transform="translate(174,316)" d="m0 0h1l1 9-1 2h2l-1 4-2 3v-3l-2-1 1-1v-11z" fill="#FF5E55"/>
<path transform="translate(199,320)" d="m0 0 2 3h-2zm3 0m-1 1m-7 1 4 2v2h-3l-2 4h-1l1-7z" fill="#FF5E55"/>
<path transform="translate(201,276)" d="m0 0h8l1 3-3 2h-3v-2h-2z" fill="#FF5E55"/>
<path transform="translate(740,424)" d="m0 0h8l1 2-5 1v2l-4-1-1-3z" fill="#E63D3E"/>
<path transform="translate(472,419)" d="m0 0h3l1 3-2 3-4-1-2-1v-2z" fill="#FF5E55"/>
<path transform="translate(182,182)" d="m0 0 2 3-2 6h-2v2h-2l1-5z" fill="#FB534D"/>
<path transform="translate(363,693)" d="m0 0 2 2v2l-4-1 1 3h-4l-2-2 4-1v-2z" fill="#E63D3E"/>
</svg>
