<?xml version="1.0" encoding="UTF-8"?>
<svg version="1.1" viewBox="0 0 992 888" width="1280" height="1280" xmlns="http://www.w3.org/2000/svg">
<path transform="translate(438,87)" d="m0 0h89l18 2 15 5 11 6 10 8 9 9 9 14 6 15 2 9 1 28 3 16 5 12 8 11 9 8 13 8 11 4 12 2 14-1 27-8 13-2h9l14 2 12 4 15 8 13 12 7 8 8 14 7 21 20 64 7 25v23l-5 19-7 14-7 9-7 8-12 9-17 8-15 6-10 6-7 5-1 2h-2l-2 4-8 14-4 9-3 18 1 16 5 15 6 11 10 15 8 16 4 15 1 6v13l-3 16-6 16-6 10-9 11-9 8-12 9-19 14-36 27-14 9-14 6-14 3h-20l-16-4-16-8-8-6-12-12-9-13-9-10-11-7-9-4-7-2-9-1h-9l-15 3-14 7-12 11-14 19-9 11-10 9-17 9-13 4h-26l-13-3-13-5-16-11-21-16-13-10-16-12-17-13-12-11-8-10-8-16-4-14-1-7v-16l3-15 5-13 6-11 8-14 5-16 1-16-2-14-7-21-6-11-9-10-8-7-13-6-13-3-14-8-13-12-8-10-6-11-4-9-3-13v-24l4-16 17-54 11-35 5-13 8-12 9-10 11-8 14-7 16-4h20l15 3 11 3h22l14-4 13-7 10-8 7-7 7-10 5-13 2-10 2-30 4-16 4-9 7-12 11-12 10-8 16-8 16-4zm33 228-20 4-18 7-16 9-13 10-12 12-8 11-8 14-7 16-4 16-2 14v19l2 14 6 21 8 17 10 14 11 12 11 10 14 9 14 7 19 6 12 2h31l19-4 16-6 17-9 14-11 13-13 10-14 8-16 5-13 4-18 1-8v-19l-3-19-5-16-5-12-10-16-11-13-7-7-13-10-16-9-15-6-16-4-6-1z" fill="#F44846"/>
<path transform="translate(476,385)" d="m0 0h18l11 3 11 6 13 13 6 12 3 11v15l-4 13-5 9-7 9-10 7-9 4-12 3h-11l-13-3-10-5-10-8-9-13-4-11-1-4v-16l3-12 5-10 11-12 14-8z" fill="#F44846"/>
</svg>
