<?xml version="1.0" encoding="UTF-8"?>
<svg version="1.1" viewBox="0 0 2048 1596" width="1280" height="1280" xmlns="http://www.w3.org/2000/svg">
<path transform="translate(1313,388)" d="m0 0h378l23 2 12 4 10 6 10 9 9 11 8 16 3 10 1 8v384l-2 15-5 14-7 11-13 13-11 7-18 6-8 2h-12l-14-3-16-6-11-7-11-11-8-14-6-19-1-6-1-48 1-115 1-35 1-9-9 7-15 14-74 74-1 2h-2l-2 4-45 45h-2l-1 3h-2l-1 3-6 5-7 8-4 4h-2l-1 3h-2l-1 3h-2v2l-7 6-4 5h-2l-2 4-5 5-10 9-237 237-14 9-16 7-12 3h-13l-14-3-16-8-13-10-10-9-3-2v-2l-4-2-16-16v-2l-4-2-5-5v-2h-2l-5-5-8-9-2-1v-2l-3-1-7-8-95-95-8-7-12-12-6 1-367 367-11 9-21 10-9 2-12 1-13-1-16-5-10-5-12-10-8-10-8-15-3-12-1-18 3-15 5-13 7-11 14-15 34-34h2l2-4 8-8h2l2-4 7-7h2l2-4 19-19h2l2-4 36-36 8-7 1-2h2l2-4 8-7 7-8 18-18 10-9 7-8 5-4 7-8 5-5 11-10 7-8 5-4 7-8 12-12h2l2-4 13-13 10-9 7-8 17-17 11-10 6-7 6-5 5-6 6-5 6-7 6-5 7-8h2l2-4 56-56 8-7 12-9 17-9 11-3h22l14 3 15 8 12 9 16 15 159 159 6 7 5 1 12-12h2l1-3h2v-2l8-7 13-13 7-8 317-317 8-7 8-8 5-4 6-9h-204l-17-2-13-5-11-7-10-9-6-7-8-16-4-11-1-6v-14l4-18 5-10 6-9 9-10 11-8 15-7 7-2z" fill="#EA3C3D"/>
<path transform="translate(1481,572)" d="m0 0 3 4-1 4-3 1v4l2 1v3l2 1-5 8h-2l-2 4-5 5-4 7h-2l-2 5h-2l-2 5-4 1-2 4-4 5-4 2-4 7-5 5h-2v2h-2l-1 5-5 3-6 5-3 5-6 1v2h-2l-2 4-10 8h-2l-2 6-5 2v3l-4 4h-2v2l-5 3-8 10-4 1v3l-5 5-5 6-5 2-2 5-5 2-4 6h-2l-2 4-5 1-1 4-4 2v2h-2v2l-5 1v4l-4 3-2-1-1 4-1 3-5 4-2 6h-2v2h-4l-2 4-4 5h-2v2l-4 1-3 6h-2l-1 5-5 1v2l-5 5-5 4-3 1-1 2h-2v3l-7 4h-2l-2 5-4 5-5 2-1 3-5 5-6 5-4 8-7 2-5 7v2l-10 4-3 2h-3v2l-5 2-1 4-3 1h-7v2l-4 3-1 5-2 2 1 5 1 2 5-1 2 2 3-1v5l-8 5-2 4h-5l1 4-2 5 1 3 5 2-3 3-6-1h-3l-2 1-2 5h3l1 7h-2v2l-7 2v-2h-2l-1-5-2-1 1 6 1 2h-2v5l-1 4 1 6h-2l-1 8-5 1-2 3 2 5-4 1h-4l-1 7-6 1-3 2-1 3h-2l-1 6-7 1h-2l-1 5-1 6 2 1h-2l1 4-5 1v-5l-5-2-1 2-2-1v2l-3-1 3-3 1-6-5 1-4 5-2-1-2-5-6 1v2l-6 1v-4l-1-5-8-1v2l-8 5v2h-5v-2h2l-2-2-1 5h3v3h2v7l1 4-1 4 4 2-1 3h2l5 6 2 5h2l1 1 2-1-1-3 3-1 1-8 6-2-1-1-8 1 1-6 6-2 8 6 2 7-2 4 3 1 3 9 1 1h5l2-2-4-1-1-3 3-2 1-3-5-1 1-3h4v2h7l1 1v8l-1 2h3v2l2 1 3 7-2 4 5 5 3 5 1 5h-4l-2-1-2-3-3-2 2 4 4 2 2 2 1 2h2l-2 4-3 1 1 2-6-1-13-7-13-10-10-9-3-2v-2l-4-2-16-16v-2l-4-2-5-5v-2h-2l-5-5-8-9-2-1v-2l-3-1-7-8-95-95-8-7-12-12-6 1-367 367-11 9-21 10-9 2-12 1-13-1-16-5-10-5-12-10-8-10-8-15-3-12-1-18 3-15 5-13 7-11 14-15 34-34h2l2-4 8-8h2l2-4 7-7h2l2-4 19-19h2l2-4 36-36 8-7 1-2h2l2-4 8-7 7-8 18-18 10-9 7-8 5-4 7-8 5-5 11-10 7-8 5-4 7-8 12-12h2l2-4 13-13 10-9 7-8 17-17 11-10 6-7 6-5 5-6 6-5 6-7 6-5 7-8h2l2-4 56-56 8-7 12-9 17-9 11-3h22l14 3 15 8 12 9 16 15 159 159 6 7 5 1 12-12h2l1-3h2v-2l8-7 13-13 7-8z" fill="#F64C4B"/>
<path transform="translate(1313,388)" d="m0 0h378l23 2 12 4 10 6 10 9 9 11 8 16 3 10 1 8v384h-1l-1-141-1-3 1-3-1-7 1-25v-94l-3-7 1-8-1-5-1-17 1-12-1-4 1-10v-11l2-9v-16l-2-7-2-9-2-8 1-2h-2l-2-10-1-3-4-2-2-3h-4l-1-1-2 2v-2h-3v-3l-4-1-1-1h-7l-7-2-10-1-5-1-12-2-2-1-12 1 3 5 2 3 3-1 2 1v4l-6 2 1 3h-3l-1 2h-6v2h-2v2l2 1-6 1 1 5 2 1 1-1 1 3 6 1-1 3h3v2h3l1-4h-2v-2l5-2 1-6 4-2 2-9-3 1 1-4v2l3-1 2 4 5 4 1-3 5-1 4-1 1 3-6 3-3 3-8 4-1 4h-3l1 9 3 3-4 2-5 1-2-1-1 2h-3v4h-2l2 9-2 2-2 4v6l3 1 2 5 4 2 3-3v2l3 3 2 5-2 1 1 7v2h-2l-2 4-1 4 1 2-6 4-3 1h-3l-1 6-5 7-3 6-3 4-1 7-1-2-6 6v4l-4 2-3 1v3l-1 4-4 6 2 1-5 2-3-2-6 2 3 3-9 3-1 3-4 1v2l-2 1v2h-2l-1 3-2 1v4l-8-1-1 2-4-4h2l-1-5h-2v2h-2l-1 2-1-4h2l2-5h-3v2l-6 1-2 1-2-2 1-3h6l1-2v-2-2l-4-2v-2l-8-2-3-3-1 3 4 1-2 2-1 3 1 2 3 2-1 3-3 1-1 2h-3l-1 2-1-1-1 3-2-1-4 1-2-4-3 3-1 3-4 1-5 5-6 2-1 2-3-1-1-4-2 5h2l-1 3-7 1 1 4h-4v2l-8 1v-3l-4 1 1 2h-3v2h-4v-2l-2-1-1 2h-4l-2 5-4-2 1-4 6-1v-3l2-5v-1h-3l-2 6-1 2-3-1-2 4-10 1-5 6-5 2-2 1 1 4 2 2-4 1-1-4-1-1v7l-4 2-1-2-6 2-2 4h-3v2h-2v2l-5 2-1 3h-2l-1 5-3 1v2h-2l-1 6-3 1-5 5-1-2-4 1-2-2 1-2h3l1-3 4 1 2-2-1-4 2-3 2-1 5-5 3-4-3-2 5-3h2v-5h2l-1-3h3l5-10 5-5 5-8h2v-2l5-5 2-5 4-2 4-8 4-3h2l1-3v2h2v-3l2-1v-3l5-1 4 1 4-1v-2h2l1-4h2l-1-7 1-8 4-3-1-2h-2v2l-9 3v-2l-3-1 1-2-5 1 6-7 9-8 6-9h-204l-17-2-13-5-11-7-10-9-6-7-8-16-4-11-1-6v-14l4-18 5-10 6-9 9-10 11-8 15-7 7-2z" fill="#F54C4B"/>
<path transform="translate(1302,785)" d="m0 0 3 2-3 4-4 6-3 2h-2l-1 5-4 1v3l-7 3-2 5h-2v3l-7 3-7 8-3-1 3-1-1-3 3-3 3-1 1-2h2v-2l3-3h3l-1-3 2-3h5l2-1-2-5 2-4h2v-2l4-1 5-5h2l1-3z" fill="#F54B4A"/>
<path transform="translate(1663,405)" d="m0 0 1 3 6 1 1-4 4 2 1 4-3 1 1 3-4 3-4-2v-4l-5 1-5-1-4-1 2-1v-2h2l1-2 3 2 1-2z" fill="#EA3C3D"/>
<path transform="translate(1175,1075)" d="m0 0h5l-4 4-14 8-4 1v-2l-4-1v-2l7-1 11-6z" fill="#F54D4C"/>
<path transform="translate(1609,603)" d="m0 0 2 1-2 6h-2v2l-4 4-1 2h-2l-2 5-3-1h-3v-3l2-2 7-2 2-5 5-2z" fill="#F64C4B"/>
<path transform="translate(1425,674)" d="m0 0 3 3 1 3h-2v2h-2l-2 5-6-1-2-1 6-5 3-3z" fill="#F64C4B"/>
<path transform="translate(1274,814)" d="m0 0h5v2h-2v3l-7 3-7 8-3-1 3-1-1-3 3-3 3-1 1-2h2v-2z" fill="#F64C4B"/>
<path transform="translate(1317,770)" d="m0 0 1 4-1 2h-2v2l-4 4-3 4h-3v-2h2l2-6 2-3h2v-2z" fill="#F54B4A"/>
<path transform="translate(1401,699)" d="m0 0h2v3l3 1-2 4-6 2-3-3 3-2 2-4z" fill="#F64C4B"/>
<path transform="translate(1390,709)" d="m0 0 4 2-4 5v3l-1 2-6-2v-2h3l1-3 1 1z" fill="#F64C4B"/>
<path transform="translate(1609,603)" d="m0 0 2 1-2 6h-2v2l-4 4h-2l1-4 4-4h2z" fill="#F54B4A"/>
<path transform="translate(1380,723)" d="m0 0 3 2-1 3-4 2-1 2-5-1 4-5 4-1z" fill="#F64C4B"/>
<path transform="translate(1241,845)" d="m0 0 1 4-1 2h-4v2h-2l2-5z" fill="#F54A49"/>
</svg>
