<svg xmlns="http://www.w3.org/2000/svg" version="1.1" viewBox="48 60 1927 355">
<path transform="translate(306,60)" d="m0 0h7l9 4 6 7 2 5v269l-3 12-6 11-9 10-11 7-12 4-6 1h-9l-11-2-14-7-10-9-7-11-4-11-1-6v-11l4-15 6-10 8-9 11-7 12-4 6-1h9l16 4 4 2 1-128-24 9-57 20-72 26-1 153-4 13-7 11-8 8-11 6-13 4h-17l-13-4-11-7-7-7-7-11-4-13v-17l4-13 6-10 7-8 11-7 10-4 5-1h16l13 4 5 2v-186l5-8 7-5 98-35 59-21z" fill="#F84F4E"/>
<path transform="translate(1144,190)" d="m0 0h18l12 3 11 6 10 10 3 4 7-9 11-8 12-5 5-1h18l12 3 11 6 6 5 8 11 5 14 1 7v83h-33l-1-80-4-10-8-7-9-3h-11l-10 3-7 6-4 8-1 4-1 79h-33l-1-79-3-9-6-7-8-4-4-1h-12l-9 3-6 4-5 8-2 9-1 76h-32v-127h32l1 13 11-9 12-5z" fill="#F84F4E"/>
<path transform="translate(1327,159)" d="m0 0h27l8 16 16 36 19 42 13 29 1 1 19-42 18-41 18-40 4-1h18l7 1v159h-26l-1-107-13 29-18 41-16 36-1 1h-19l-13-28-16-36-18-40-1-3-1 107h-26v-159z" fill="#FEFEFE"/>
<path transform="translate(525,159)" d="m0 0h70l16 3 13 5 12 7 10 9 7 8 8 15 4 13 1 6v29l-4 16-8 16-9 11-12 9-16 8-15 4-7 1h-70zm33 27v106h30l12-2 10-4 9-7 7-8 5-11 2-9v-24l-4-14-7-11-9-8-10-5-12-3z" fill="#F84F4E"/>
<path transform="translate(966,190)" d="m0 0h21l11 3 10 6 10 9 1-16h32v127h-32l-1-16-11 10-12 6-17 3-17-2-12-5-10-7-9-10-6-11-4-11-2-11v-19l3-15 5-12 8-11 7-7 14-8zm13 28-11 4-8 7-4 5-4 10-1 5v13l4 13 6 8 7 6 11 4h12l11-4 8-7 4-5 4-11 1-6v-8l-3-14-7-10-8-6-10-4z" fill="#F84F4E"/>
<path transform="translate(828,190)" d="m0 0h23l13 3 12 6 11 9 9 13 5 13 2 11v15l-1 5h-94l5 15 7 8 10 5 5 1h9l11-4 5-4 5-7h34l-1 6-5 10-9 11-10 7-10 5-13 3-13 1-15-2-12-4-9-5-10-9-7-9-5-10-4-14v-26l4-15 6-12 9-10 8-7 13-6zm6 26-10 3-10 9-4 8-1 8h60l1-2-3-10-4-6-7-6-8-3-4-1z" fill="#F84F4E"/>
<path transform="translate(1619,192)" d="m0 0 26 1v126h-27l-1-12h-2v2l-12 8-14 4h-18l-12-3-11-6-6-5-8-11-5-15-1-6v-82h26l1 73 2 13 6 10 8 6 6 2h18l10-4 7-7 4-9 1-5 1-79z" fill="#FEFEFE"/>
<path transform="translate(1722,190)" d="m0 0 15 1 12 4 9 6 5 5 4 5 4 8 2 11-1 1h-26l-4-10-6-5-5-2-11-1-10 2-6 4-2 4v7l3 5 8 5 35 11 12 6 8 7 5 9 1 4v14l-4 10-7 9-10 6-11 4-5 1h-23l-12-3-12-6-8-7-7-11-3-11v-2l27-1 6 12 9 5 3 1h17l9-4 4-5v-9l-4-5-12-5-29-9-14-7-8-7-4-8-2-8v-7l3-10 6-9 8-7 11-5 8-2z" fill="#FEFEFE"/>
<path transform="translate(1914,190)" d="m0 0 17 1 14 4 10 6 10 9 7 11 3 8v4h-27l-7-10-7-6-8-3-11-1-11 2-9 6-7 8-4 11-1 5v22l3 11 4 8 5 5 8 5 6 2h17l10-4 7-7 5-8h27l-1 6-6 12-9 10-9 7-12 5-10 2h-23l-12-3-13-7-11-10-7-11-5-12-2-9v-26l4-15 5-10 7-9 10-9 12-6 10-3z" fill="#FEFEFE"/>
<path transform="translate(755,190)" d="m0 0h7v34l-17 1-9 3-6 4-5 10-1 5-1 72h-32v-127h32l1 17 9-10 11-6 5-2z" fill="#F84F4E"/>
<path transform="translate(1803,192)" d="m0 0 26 1v126h-26l-1-1v-125z" fill="#FEFEFE"/>
<path transform="translate(1811,142)" d="m0 0h9l6 3 5 6 2 6-1 8-4 6-6 4-9 1-7-3-6-7-1-3v-8l4-8z" fill="#FEFEFE"/>
</svg>